<?xml version="1.0" encoding="UTF-8"?>
<svg width="366px" height="94px" viewBox="0 0 366 94" version="1.1" xmlns="http://www.w3.org/2000/svg" xmlns:xlink="http://www.w3.org/1999/xlink">
    <!-- Generator: Sketch 52.6 (67491) - http://www.bohemiancoding.com/sketch -->
    <title>WCB, inc LOGO Copy</title>
    <desc>Created with Sketch.</desc>
    <g id="Page-2" stroke="none" stroke-width="1" fill="none" fill-rule="evenodd">
        <g id="WCB,-inc-LOGO-Copy" transform="translate(-3.000000, -30.000000)">
            <g id="Group" transform="translate(117.000000, 30.000000)" fill-rule="nonzero">
                <path d="M51.0933685,18.7065774 L51.0933685,12.0827887 L42.9184295,12.0827887 L42.9184295,18.6604109 C29.0285363,20.5800559 18.3308948,32.5366269 18.3308948,47 C18.3308948,62.8001463 31.0973722,75.6086957 46.8456201,75.6086957 C59.7369065,75.6086957 70.6301618,67.0259157 74.1582838,55.2451454 L92.9727878,55.2451454 C89.0880163,77.2709454 69.9140411,94 46.8456201,94 C20.9734985,94 0,72.9573832 0,47 C0,21.0426168 20.9734985,0 46.8456201,0 C69.9684093,0 89.1783739,16.8080023 93,38.9106754 L74.2044647,38.9106754 C71.1138435,28.372115 62.1385706,20.361651 51.0933685,18.7065774 Z" id="Combined-Shape" fill="#FFFFFF"></path>
                <path d="M43.1452282,23 L43.1452282,29.7163031 L51.2780083,29.7163031 L51.2780083,23.2389793 C62.5217088,25.4720109 71,35.4340646 71,47.3855774 C71,60.9797476 60.0309764,72 46.5,72 C32.9690236,72 22,60.9797476 22,47.3855774 C22,34.9347699 31.2014781,24.6431199 43.1452282,23 Z" id="Combined-Shape" fill="#B5131B"></path>
            </g>
            <text id="W" font-family="Aileron-Bold, Aileron" font-size="122" font-weight="bold" fill="#FFFFFF">
                <tspan x="0.293" y="118">W</tspan>
            </text>
            <text id="B" font-family="Aileron-Bold, Aileron" font-size="122" font-weight="bold" fill="#FFFFFF">
                <tspan x="204.423" y="118">B</tspan>
            </text>
            <text id="inc." font-family="LucidaGrande, Lucida Grande" font-size="52" font-weight="normal" fill="#FFFFFF">
                <tspan x="283.304688" y="118">inc.</tspan>
            </text>
        </g>
    </g>
</svg>